 <svg  version="1.0" xmlns="http://www.w3.org/2000/svg"  width="450.000000pt" height="455.000000pt" viewBox="0 0 450.000000 455.000000"  preserveAspectRatio="xMidYMid meet">  <g transform="translate(0.000000,455.000000) scale(0.050000,-0.050000)" fill="#d03939" stroke="none"> <path d="M0 4550 l0 -4550 4500 0 4500 0 0 4550 0 4550 -4500 0 -4500 0 0 -4550z m8940 70 l0 -4460 -4460 0 -4460 0 0 4447 c0 2445 6 4452 13 4460 8 7 2015 13 4460 13 l4447 0 0 -4460z"/> <path d="M4298 8129 c-603 -109 -1127 -430 -1519 -929 -196 -251 -469 -838 -356 -768 15 9 18 5 9 -9 -8 -13 -22 -19 -32 -13 -43 27 -100 -348 -100 -662 0 -785 314 -1434 934 -1929 133 -106 440 -292 455 -276 11 10 91 225 91 242 0 8 -47 38 -105 67 -417 212 -811 659 -983 1118 -36 94 -69 167 -73 162 -5 -5 -10 20 -10 55 -3 104 -27 176 -55 160 -18 -11 -19 -8 -1 14 15 20 17 65 6 139 -40 274 4 658 111 965 26 74 41 135 34 135 -8 0 -4 7 8 15 30 20 113 185 93 185 -8 0 -6 7 6 15 52 38 167 226 156 256 -10 26 -16 27 -32 6 -14 -21 -16 -19 -8 6 5 17 -1 44 -14 59 -19 21 -17 22 11 0 19 -14 43 -20 53 -14 11 7 15 -7 8 -33 -7 -29 41 10 137 114 82 87 146 167 143 176 -4 10 2 13 13 6 10 -6 44 10 75 36 529 443 1341 588 2017 362 1094 -367 1704 -1474 1432 -2596 -10 -43 -14 -92 -7 -109 7 -18 3 -25 -9 -18 -26 16 -88 -140 -78 -196 3 -22 2 -27 -3 -12 -5 16 -35 -24 -69 -90 -452 -886 -1576 -1397 -2458 -1117 -28 8 -198 -176 -198 -215 0 -56 517 -124 829 -110 404 19 1010 202 1111 335 6 8 31 20 58 28 37 12 42 19 20 35 -22 15 -20 17 8 8 40 -13 159 64 142 91 -5 9 4 11 21 5 37 -15 41 14 6 49 -20 20 -19 28 5 43 16 10 33 13 39 8 5 -6 -2 -18 -17 -27 -21 -13 -21 -19 -1 -32 16 -10 43 4 72 39 26 30 47 47 47 39 0 -9 45 29 100 83 89 87 133 152 81 121 -10 -6 -25 0 -33 14 -8 14 -7 18 2 10 9 -8 30 -3 47 10 25 21 28 20 14 -5 -10 -16 7 -8 36 19 30 27 50 61 44 76 -6 15 -3 23 6 17 104 -64 512 921 475 1147 -7 49 -5 62 8 41 13 -20 19 53 20 220 0 262 -17 464 -38 452 -6 -5 -13 30 -14 77 -3 94 -62 291 -88 291 -9 0 -12 16 -7 36 5 20 -40 135 -101 257 -486 971 -1531 1505 -2574 1316z m-1558 -1183 c0 -7 -6 -7 -13 0 -15 15 -67 -22 -67 -47 0 -9 18 -22 40 -29 22 -7 40 -22 40 -32 0 -11 -27 -4 -60 15 -68 40 -72 52 -30 87 16 13 24 33 17 44 -6 11 7 10 31 -3 23 -12 42 -28 42 -35z m4260 -657 c-11 -28 -9 -54 6 -70 20 -23 18 -23 -11 -1 -42 32 -47 115 -7 115 21 0 24 -11 12 -44z m-609 -2265 c-4 -4 -21 -9 -37 -11 -17 -3 -42 -15 -58 -28 -22 -18 -27 -15 -27 14 0 22 10 32 26 26 15 -5 25 -2 23 8 -7 40 4 46 41 23 22 -14 36 -28 32 -32z"/> <path d="M5059 7435 c-144 -195 -358 -540 -346 -559 8 -13 4 -16 -9 -8 -36 22 -146 -167 -134 -228 9 -43 7 -45 -11 -14 -19 30 -72 -38 -365 -475 -189 -280 -445 -660 -570 -843 -124 -184 -222 -337 -219 -340 11 -10 881 150 915 168 153 83 134 8 -250 -966 -74 -187 -154 -394 -180 -460 -25 -66 -65 -169 -88 -230 -54 -140 -81 -171 409 483 229 305 398 529 408 537 6 6 52 64 101 129 50 66 140 184 200 262 253 329 694 904 746 974 60 80 57 82 -86 56 -49 -9 -207 -35 -350 -58 -143 -23 -358 -60 -479 -83 -313 -57 -301 -64 -231 134 21 62 35 136 29 164 -8 44 -7 46 9 12 17 -36 20 -33 33 25 8 36 22 71 32 77 9 6 17 23 17 39 0 16 17 68 37 114 21 47 69 171 109 275 39 105 111 294 161 420 97 251 173 460 165 460 -2 0 -26 -29 -53 -65z m-719 -1586 c0 -17 -22 -75 -50 -129 -57 -113 -59 -122 -25 -110 88 32 1091 181 1107 165 16 -16 -21 -80 -125 -217 -127 -167 -171 -161 -75 9 62 112 92 108 -348 45 -184 -27 -383 -54 -444 -61 -60 -7 -144 -18 -185 -25 -101 -15 -99 15 18 203 91 148 127 182 127 120z"/> <path d="M5265 7475 c-69 -17 -85 -29 -85 -66 0 -25 -45 -163 -100 -307 -117 -305 -114 -290 -50 -274 39 10 62 1 101 -41 68 -74 73 -65 169 313 112 441 115 411 -35 375z"/> <path d="M4620 7319 c-251 -58 -789 -183 -1310 -306 l-280 -66 -83 -324 c-46 -177 -79 -323 -74 -323 5 0 36 14 68 31 56 28 318 98 684 181 118 27 161 30 179 12 21 -21 -76 -464 -215 -984 -16 -60 -26 -118 -23 -128 5 -15 654 931 744 1083 11 18 56 83 100 144 216 300 504 741 483 740 -13 -1 -135 -28 -273 -60z"/> <path d="M5569 5610 l-235 -311 -304 -734 -303 -735 232 -6 231 -6 55 66 c31 36 125 157 210 269 952 1252 1316 1733 1322 1748 3 11 -71 19 -173 19 l-180 0 -69 -95 c-38 -52 -185 -245 -327 -428 -142 -183 -356 -461 -475 -616 -120 -156 -221 -280 -224 -276 -4 4 118 312 271 686 299 726 300 729 242 729 -25 0 -115 -102 -273 -310z"/> <path d="M1582 3015 c-57 -278 -154 -748 -214 -1045 -60 -297 -114 -556 -120 -575 -10 -33 28 -35 609 -35 l620 0 21 100 c12 54 27 137 35 183 l13 83 -403 -14 c-279 -10 -403 -8 -403 7 0 12 27 143 60 291 33 148 60 274 60 280 0 5 166 10 368 10 l369 0 21 100 c12 54 27 136 34 181 l13 81 -349 -14 c-417 -16 -391 -37 -326 265 65 297 24 274 458 263 l371 -9 23 111 c12 62 30 141 39 177 l16 65 -605 0 -606 0 -104 -505z"/> <path d="M3020 3020 c0 -29 13 -40 50 -40 42 0 49 -7 40 -45 -76 -328 -81 -395 -32 -395 40 0 44 12 103 315 23 117 28 125 79 125 47 0 80 30 80 72 0 4 -72 8 -160 8 -147 0 -160 -3 -160 -40z"/> <path d="M3412 3028 c-41 -106 -12 -488 36 -488 43 0 57 21 113 171 88 232 107 234 89 12 l-14 -183 50 0 c65 0 280 504 221 517 -41 9 -53 -12 -118 -197 -77 -220 -93 -219 -77 7 14 196 14 197 -31 190 -35 -5 -56 -36 -95 -137 -102 -270 -108 -273 -97 -55 9 181 7 195 -27 195 -21 0 -43 -14 -50 -32z"/> <path d="M4040 3055 c0 -3 -22 -114 -50 -245 -27 -132 -50 -247 -50 -255 0 -8 63 -15 140 -15 127 0 140 4 140 40 0 34 -13 40 -90 40 -94 0 -98 6 -72 100 11 41 29 52 101 60 114 13 134 60 26 60 -96 0 -100 4 -89 80 8 57 13 60 104 60 89 0 140 33 105 68 -11 12 -265 18 -265 7z"/> <path d="M4421 2984 c-74 -276 -97 -444 -59 -444 37 0 60 57 89 230 25 142 42 141 67 -2 41 -234 39 -228 92 -228 28 0 50 3 50 7 0 4 23 118 50 253 28 136 46 251 41 256 -30 30 -71 -28 -91 -130 -37 -184 -43 -206 -60 -206 -8 0 -21 47 -28 105 -28 221 -33 235 -83 235 -38 0 -52 -15 -68 -76z"/> <path d="M4881 2947 c-13 -64 -31 -144 -41 -177 -9 -33 -23 -98 -30 -145 l-14 -85 97 0 c183 1 285 121 293 347 5 139 -14 158 -164 169 l-118 9 -23 -118z m197 35 c34 -22 20 -209 -22 -296 -25 -53 -122 -107 -147 -81 -11 10 37 296 61 370 10 29 67 32 108 7z"/> <path d="M5351 3015 c-6 -25 -28 -124 -50 -222 -62 -266 -65 -256 94 -249 170 8 221 76 56 76 -98 0 -107 14 -71 109 16 43 32 51 97 51 52 0 83 10 90 30 9 24 -5 30 -66 30 -91 0 -101 10 -87 85 10 51 18 55 108 55 85 0 98 5 98 40 0 65 -255 60 -269 -5z"/> <path d="M5921 2846 c-25 -119 -49 -236 -55 -261 -8 -35 -2 -45 29 -45 33 0 44 27 74 170 41 193 61 212 79 75 35 -256 32 -248 88 -241 75 9 189 516 115 516 -31 0 -31 -1 -82 -216 -41 -176 -46 -173 -76 39 -22 158 -26 167 -75 173 -51 6 -53 1 -97 -210z"/> <path d="M6413 2815 c-127 -275 -127 -275 -75 -275 22 0 47 23 62 60 22 52 35 60 102 60 73 0 78 -4 78 -60 0 -47 9 -60 40 -60 37 0 40 13 40 167 0 458 -70 488 -247 108z m163 30 c-6 -108 -9 -115 -56 -115 -56 0 -56 11 -6 145 44 118 69 106 62 -30z"/> <path d="M6859 2978 c-27 -101 -79 -371 -79 -410 0 -43 251 -40 268 4 18 48 18 48 -78 48 -106 0 -106 -3 -50 240 48 210 48 200 1 200 -29 0 -45 -21 -62 -82z"/> <path d="M7281 3004 c-83 -83 -142 -339 -94 -412 121 -185 353 33 353 331 0 148 -146 194 -259 81z m165 -130 c-5 -153 -58 -264 -126 -264 -63 0 -73 54 -39 216 46 217 172 253 165 48z"/> <path d="M4170 2277 c-22 -13 -60 -41 -85 -63 l-45 -41 0 55 c0 53 -3 54 -104 48 l-103 -6 -36 -170 c-19 -93 -71 -345 -116 -560 -45 -214 -86 -410 -91 -435 -10 -43 -5 -45 106 -45 l116 0 33 173 c40 204 42 207 101 150 216 -202 534 193 534 663 0 197 -159 314 -310 231z m62 -209 c35 -139 -47 -469 -132 -531 -163 -119 -211 162 -79 461 61 137 184 178 211 70z"/> <path d="M5130 2277 c-22 -12 -65 -45 -95 -73 l-55 -51 0 63 c0 77 -186 103 -207 29 -6 -19 -47 -215 -93 -435 -45 -220 -86 -411 -90 -425 -6 -18 23 -25 108 -25 l116 0 57 281 c75 370 120 439 286 439 50 0 57 9 76 100 25 126 -2 152 -103 97z"/> <path d="M5615 2271 c-297 -105 -468 -760 -235 -898 185 -109 500 24 551 232 13 55 13 55 -89 55 -76 0 -102 -7 -102 -29 0 -40 -81 -125 -133 -140 -86 -25 -133 98 -94 244 11 43 20 45 240 45 267 0 267 0 267 237 0 240 -162 341 -405 254z m186 -173 c13 -24 17 -72 10 -110 l-13 -68 -119 0 c-128 0 -143 16 -96 106 61 119 173 156 218 72z"/> <path d="M6451 2268 c-311 -114 -315 -404 -7 -529 163 -67 194 -172 68 -232 -102 -49 -172 -15 -172 83 0 97 -166 110 -202 15 -60 -158 45 -265 262 -264 217 0 351 87 403 261 49 162 13 204 -286 338 -81 36 -96 101 -38 159 77 77 216 33 196 -63 -3 -19 24 -26 95 -26 l100 0 6 74 c15 182 -189 271 -425 184z"/> <path d="M7315 2273 c-323 -120 -342 -408 -34 -532 151 -61 181 -99 139 -175 -68 -119 -240 -94 -240 36 0 59 -1 60 -95 54 l-95 -6 -6 -89 c-22 -298 494 -312 648 -17 67 129 -4 336 -115 336 -150 0 -268 148 -180 227 74 67 183 30 183 -61 0 -42 9 -46 101 -46 l101 0 -6 103 c-10 167 -196 246 -401 170z"/> <path d="M2905 2255 c5 -14 39 -116 75 -227 l66 -201 -86 -119 c-47 -65 -120 -164 -163 -220 -98 -129 -98 -128 33 -128 l110 0 93 140 c105 159 117 165 135 76 7 -35 22 -98 33 -140 l21 -76 117 0 117 0 -76 233 -76 234 82 111 c45 62 116 157 158 212 97 128 96 130 -31 130 l-107 0 -97 -145 -97 -145 -27 100 c-51 190 -51 190 -177 190 -81 0 -110 -7 -103 -25z"/> </g> </svg> 